<svg xmlns="http://www.w3.org/2000/svg" width="25" height="25" viewBox="0 0 25 25">
  <path id="Account-Icon" d="M346.5,54A12.5,12.5,0,1,0,334,41.5,12.5,12.5,0,0,0,346.5,54Zm0-1A11.5,11.5,0,1,1,358,41.5,11.5,11.5,0,0,1,346.5,53Zm0,0h0V32.25a5.614,5.614,0,0,0-1.75.25,5.163,5.163,0,0,0-1.75,1c-2,1.5-1,5.5-1,5.5-.115.115-.135.133-.25.25a1.069,1.069,0,0,0-.25.75,1.924,1.924,0,0,0,.75,1.25,7.672,7.672,0,0,0,1.75,4.5,3.17,3.17,0,0,1-.5,3S340.367,49.6,339,50a8.653,8.653,0,0,0,1.5,1.25,15.386,15.386,0,0,0,2,1,12.584,12.584,0,0,0,1.944.484A13.829,13.829,0,0,0,346.5,53h0V32.25a5.614,5.614,0,0,1,1.75.25,5.163,5.163,0,0,1,1.75,1c2,1.5,1,5.5,1,5.5.115.115.135.133.25.25a1.069,1.069,0,0,1,.25.75,1.924,1.924,0,0,1-.75,1.25,7.672,7.672,0,0,1-1.75,4.5,3.17,3.17,0,0,0,.5,3s3.133.848,4.5,1.25a8.653,8.653,0,0,1-1.5,1.25,15.386,15.386,0,0,1-2,1,12.584,12.584,0,0,1-1.944.484A13.826,13.826,0,0,1,346.5,53Z" transform="translate(-334 -29)" fill="#9D4CDF" fill-rule="evenodd"/>
</svg>
