<svg xmlns="http://www.w3.org/2000/svg" width="11.752" height="10.283" viewBox="0 0 11.752 10.283">
  <path id="Icon_awesome-camera" data-name="Icon awesome-camera" d="M11.752,4.821v6.611a1.1,1.1,0,0,1-1.1,1.1H1.1a1.1,1.1,0,0,1-1.1-1.1V4.821a1.1,1.1,0,0,1,1.1-1.1h2.02L3.4,2.964A1.1,1.1,0,0,1,4.435,2.25H7.315a1.1,1.1,0,0,1,1.031.714l.285.755h2.02A1.1,1.1,0,0,1,11.752,4.821ZM8.631,8.126a2.754,2.754,0,1,0-2.754,2.754A2.757,2.757,0,0,0,8.631,8.126Zm-.735,0a2.02,2.02,0,1,1-2.02-2.02A2.023,2.023,0,0,1,7.9,8.126Z" transform="translate(0 -2.25)" fill="#d1d1d1"/>
</svg>
