<svg xmlns="http://www.w3.org/2000/svg" width="17.675" height="17.6" viewBox="0 0 17.675 17.6">
  <path id="Icon" d="M7,2a5.075,5.075,0,0,1,3.6,1.5,4.917,4.917,0,0,1,.4,6.6l-.4.5-.5.4A5,5,0,0,1,7,12a5.075,5.075,0,0,1-3.6-1.5A5,5,0,0,1,2,7,4.691,4.691,0,0,1,3.5,3.5,4.691,4.691,0,0,1,7,2M7,0A7.384,7.384,0,0,0,2,2,7.05,7.05,0,0,0,7,14a7.03,7.03,0,0,0,4.3-1.5l5,5a.5.5,0,0,0,.6,0l.6-.6c.2-.2.2-.5,0-.6l-5-5A7.158,7.158,0,0,0,11.9,2,6.966,6.966,0,0,0,7,0Z" transform="translate(0.025)" fill="#8c8c8c"/>
</svg>
