<svg xmlns="http://www.w3.org/2000/svg" width="20" height="13.6" viewBox="0 0 20 13.6">
  <path id="Shuffle_Icon" data-name="Shuffle Icon" d="M18.2,2.3,16.5.7l.7-.7L20,2.8,17.2,5.6,16.5,5l1.7-1.7H14a2.258,2.258,0,0,0-1.6.8l-2,2.7,1.9,2.6a2.258,2.258,0,0,0,1.6.8h4.3L16.5,8.6l.6-.6,2.8,2.8-2.8,2.8-.6-.6,1.7-1.7H13.4a2.258,2.258,0,0,1-1.6-.8l-2-2.7-2,2.7a2.258,2.258,0,0,1-1.6.8H0v-1H5.8a2.258,2.258,0,0,0,1.6-.8L9.3,6.9l-2-2.8a2.258,2.258,0,0,0-1.6-.8H0v-1H6.2a2.469,2.469,0,0,1,1.6.8L9.8,6,12,3.1a2.258,2.258,0,0,1,1.6-.8Z" fill="#929397"/>
</svg>
